<mxfile host="app.diagrams.net" agent="Mozilla/5.0 (Windows NT 10.0; Win64; x64) AppleWebKit/537.36 (KHTML, like Gecko) Chrome/127.0.0.0 Safari/537.36 Edg/127.0.0.0" version="24.7.5">
  <diagram id="cJPERRU5FPI5m97aNJmQ" name="Page-1">
    <mxGraphModel dx="660" dy="357" grid="1" gridSize="10" guides="1" tooltips="1" connect="0" arrows="0" fold="1" page="1" pageScale="1" pageWidth="827" pageHeight="1169" math="1" shadow="0">
      <root>
        <mxCell id="0" />
        <mxCell id="1" parent="0" />
        <mxCell id="cqXrJtTT8aO_RvqBYm-K-26" value="" style="endArrow=none;dashed=1;html=1;strokeWidth=1;fontColor=#4D9900;strokeColor=#97D077;startArrow=none;startFill=0;endSize=6;startSize=3;" parent="1" edge="1">
          <mxGeometry width="50" height="50" relative="1" as="geometry">
            <mxPoint x="110" y="530" as="sourcePoint" />
            <mxPoint x="120" y="540" as="targetPoint" />
          </mxGeometry>
        </mxCell>
        <mxCell id="cqXrJtTT8aO_RvqBYm-K-27" value="" style="endArrow=none;dashed=1;html=1;strokeWidth=1;fontColor=#4D9900;strokeColor=#97D077;startArrow=none;startFill=0;endSize=6;startSize=3;" parent="1" edge="1">
          <mxGeometry width="50" height="50" relative="1" as="geometry">
            <mxPoint x="110" y="530" as="sourcePoint" />
            <mxPoint x="100" y="520" as="targetPoint" />
          </mxGeometry>
        </mxCell>
        <mxCell id="cqXrJtTT8aO_RvqBYm-K-21" value="" style="endArrow=none;dashed=1;html=1;strokeWidth=1;fontColor=#4D9900;strokeColor=#97D077;startArrow=none;startFill=0;endSize=6;startSize=3;" parent="1" edge="1">
          <mxGeometry width="50" height="50" relative="1" as="geometry">
            <mxPoint x="130" y="510" as="sourcePoint" />
            <mxPoint x="140" y="520" as="targetPoint" />
          </mxGeometry>
        </mxCell>
        <mxCell id="cqXrJtTT8aO_RvqBYm-K-17" value="" style="endArrow=none;dashed=1;html=1;strokeWidth=1;fontColor=#4D9900;strokeColor=#97D077;startArrow=none;startFill=0;endSize=6;startSize=3;" parent="1" edge="1">
          <mxGeometry width="50" height="50" relative="1" as="geometry">
            <mxPoint x="130" y="510" as="sourcePoint" />
            <mxPoint x="120" y="500" as="targetPoint" />
          </mxGeometry>
        </mxCell>
        <mxCell id="cqXrJtTT8aO_RvqBYm-K-14" value="" style="endArrow=classic;html=1;strokeColor=#4D9900;strokeWidth=2;" parent="1" edge="1">
          <mxGeometry width="50" height="50" relative="1" as="geometry">
            <mxPoint x="120" y="520" as="sourcePoint" />
            <mxPoint x="170" y="470" as="targetPoint" />
          </mxGeometry>
        </mxCell>
        <mxCell id="bSFLhGRgzUmWaKW0KJtj-1" value="" style="endArrow=classic;html=1;fontFamily=Comic Sans MS;fontSize=30;fontColor=#003366;strokeWidth=2;strokeColor=#B3B3B3;" parent="1" edge="1">
          <mxGeometry x="20" y="200" width="50" height="50" as="geometry">
            <mxPoint x="120" y="560" as="sourcePoint" />
            <mxPoint x="120" y="360" as="targetPoint" />
          </mxGeometry>
        </mxCell>
        <mxCell id="bSFLhGRgzUmWaKW0KJtj-2" value="" style="endArrow=classic;html=1;fontFamily=Comic Sans MS;fontSize=30;fontColor=#003366;strokeWidth=2;strokeColor=#B3B3B3;" parent="1" edge="1">
          <mxGeometry x="40" y="220" width="50" height="50" as="geometry">
            <mxPoint x="80" y="520" as="sourcePoint" />
            <mxPoint x="280" y="520" as="targetPoint" />
          </mxGeometry>
        </mxCell>
        <mxCell id="bSFLhGRgzUmWaKW0KJtj-17" value="" style="endArrow=classic;html=1;fontFamily=Comic Sans MS;fontSize=30;fontColor=#003366;strokeWidth=2;strokeColor=#B3B3B3;" parent="1" edge="1">
          <mxGeometry x="280" y="220" width="50" height="50" as="geometry">
            <mxPoint x="320" y="520" as="sourcePoint" />
            <mxPoint x="520" y="520" as="targetPoint" />
          </mxGeometry>
        </mxCell>
        <mxCell id="cqXrJtTT8aO_RvqBYm-K-6" value="&lt;font color=&quot;#b3b3b3&quot;&gt;\(x_1\)&lt;/font&gt;" style="text;html=1;strokeColor=none;fillColor=none;align=center;verticalAlign=middle;whiteSpace=wrap;rounded=0;" parent="1" vertex="1">
          <mxGeometry x="250" y="520" width="20" height="20" as="geometry" />
        </mxCell>
        <mxCell id="cqXrJtTT8aO_RvqBYm-K-7" value="&lt;font color=&quot;#b3b3b3&quot;&gt;\(x_2\)&lt;/font&gt;" style="text;html=1;strokeColor=none;fillColor=none;align=center;verticalAlign=middle;whiteSpace=wrap;rounded=0;" parent="1" vertex="1">
          <mxGeometry x="100" y="370" width="20" height="20" as="geometry" />
        </mxCell>
        <mxCell id="cqXrJtTT8aO_RvqBYm-K-8" value="" style="ellipse;whiteSpace=wrap;html=1;strokeColor=none;fillColor=#4E7EBD;" parent="1" vertex="1">
          <mxGeometry x="135" y="515" width="10" height="10" as="geometry" />
        </mxCell>
        <mxCell id="cqXrJtTT8aO_RvqBYm-K-9" value="" style="ellipse;whiteSpace=wrap;html=1;strokeColor=none;fillColor=#4E7EBD;" parent="1" vertex="1">
          <mxGeometry x="145" y="485" width="10" height="10" as="geometry" />
        </mxCell>
        <mxCell id="cqXrJtTT8aO_RvqBYm-K-10" value="" style="ellipse;whiteSpace=wrap;html=1;strokeColor=none;fillColor=#4E7EBD;" parent="1" vertex="1">
          <mxGeometry x="85" y="545" width="10" height="10" as="geometry" />
        </mxCell>
        <mxCell id="cqXrJtTT8aO_RvqBYm-K-11" value="" style="ellipse;whiteSpace=wrap;html=1;strokeColor=none;fillColor=#4E7EBD;" parent="1" vertex="1">
          <mxGeometry x="95" y="515" width="10" height="10" as="geometry" />
        </mxCell>
        <mxCell id="cqXrJtTT8aO_RvqBYm-K-12" value="" style="ellipse;whiteSpace=wrap;html=1;strokeColor=none;fillColor=#4E7EBD;" parent="1" vertex="1">
          <mxGeometry x="115" y="535" width="10" height="10" as="geometry" />
        </mxCell>
        <mxCell id="cqXrJtTT8aO_RvqBYm-K-13" value="" style="ellipse;whiteSpace=wrap;html=1;strokeColor=none;fillColor=#4E7EBD;" parent="1" vertex="1">
          <mxGeometry x="115" y="495" width="10" height="10" as="geometry" />
        </mxCell>
        <mxCell id="cqXrJtTT8aO_RvqBYm-K-15" value="\(\boldsymbol{u}_1\)" style="text;html=1;strokeColor=none;fillColor=none;align=center;verticalAlign=middle;whiteSpace=wrap;rounded=0;fontColor=#4D9900;" parent="1" vertex="1">
          <mxGeometry x="164" y="450" width="20" height="20" as="geometry" />
        </mxCell>
        <mxCell id="cqXrJtTT8aO_RvqBYm-K-28" value="" style="ellipse;whiteSpace=wrap;html=1;strokeColor=none;fillColor=#4E7EBD;" parent="1" vertex="1">
          <mxGeometry x="450" y="515" width="10" height="10" as="geometry" />
        </mxCell>
        <mxCell id="cqXrJtTT8aO_RvqBYm-K-30" value="" style="ellipse;whiteSpace=wrap;html=1;strokeColor=none;fillColor=#4E7EBD;" parent="1" vertex="1">
          <mxGeometry x="421" y="514" width="10" height="10" as="geometry" />
        </mxCell>
        <mxCell id="cqXrJtTT8aO_RvqBYm-K-31" value="" style="ellipse;whiteSpace=wrap;html=1;strokeColor=none;fillColor=#4E7EBD;" parent="1" vertex="1">
          <mxGeometry x="419" y="516" width="10" height="10" as="geometry" />
        </mxCell>
        <mxCell id="cqXrJtTT8aO_RvqBYm-K-32" value="" style="ellipse;whiteSpace=wrap;html=1;strokeColor=none;fillColor=#4E7EBD;" parent="1" vertex="1">
          <mxGeometry x="391" y="514" width="10" height="10" as="geometry" />
        </mxCell>
        <mxCell id="cqXrJtTT8aO_RvqBYm-K-33" value="" style="ellipse;whiteSpace=wrap;html=1;strokeColor=none;fillColor=#4E7EBD;" parent="1" vertex="1">
          <mxGeometry x="389" y="516" width="10" height="10" as="geometry" />
        </mxCell>
        <mxCell id="cqXrJtTT8aO_RvqBYm-K-34" value="" style="ellipse;whiteSpace=wrap;html=1;strokeColor=none;fillColor=#4E7EBD;" parent="1" vertex="1">
          <mxGeometry x="360" y="515" width="10" height="10" as="geometry" />
        </mxCell>
        <mxCell id="cqXrJtTT8aO_RvqBYm-K-35" value="&lt;font color=&quot;#b3b3b3&quot;&gt;\(z_1\)&lt;/font&gt;" style="text;html=1;strokeColor=none;fillColor=none;align=center;verticalAlign=middle;whiteSpace=wrap;rounded=0;" parent="1" vertex="1">
          <mxGeometry x="490" y="520" width="20" height="20" as="geometry" />
        </mxCell>
        <mxCell id="cqXrJtTT8aO_RvqBYm-K-36" value="" style="endArrow=none;html=1;fontFamily=Comic Sans MS;fontSize=30;fontColor=#003366;strokeWidth=2;strokeColor=#B3B3B3;endFill=0;" parent="1" edge="1">
          <mxGeometry x="290" y="230" width="50" height="50" as="geometry">
            <mxPoint x="410" y="510" as="sourcePoint" />
            <mxPoint x="410" y="530" as="targetPoint" />
          </mxGeometry>
        </mxCell>
        <mxCell id="cqXrJtTT8aO_RvqBYm-K-39" value="&lt;font&gt;\(z=T^{\top}\boldsymbol{x}\)&lt;/font&gt;" style="text;html=1;strokeColor=none;fillColor=none;align=center;verticalAlign=middle;whiteSpace=wrap;rounded=0;fontColor=#4E7EBD;" parent="1" vertex="1">
          <mxGeometry x="350" y="450" width="120" height="20" as="geometry" />
        </mxCell>
      </root>
    </mxGraphModel>
  </diagram>
</mxfile>
